<svg width="32" height="23" viewBox="0 0 32 23" fill="none" xmlns="http://www.w3.org/2000/svg">
<g clip-path="url(#clip0_114_3249)">
<path d="M23.8083 14.0119C25.6526 14.0119 27.1579 13.5303 28.6156 12.053C28.1307 17.3999 25.5385 20.2085 18.7506 21.8334L18.7538 23C27.3987 22.0089 32 16.4042 32 9.73997C32 3.55423 29.1416 0 24.5055 0C20.4619 0 17.4292 2.46062 17.4292 7.3477C17.4292 11.4487 20.0436 14.0119 23.8083 14.0119Z" fill="#CCCCCC"/>
<path d="M6.37909 14.0119C8.22341 14.0119 9.72866 13.5303 11.1864 12.053C10.7015 17.3999 8.10933 20.2085 1.32145 21.8334L1.32462 23C9.9695 22.0089 14.5708 16.4042 14.5708 9.73997C14.5708 3.55423 11.7124 0 7.07625 0C3.03268 0 0 2.46062 0 7.3477C0 11.4487 2.61438 14.0119 6.37909 14.0119Z" fill="#CCCCCC"/>
</g>
<defs>
<clipPath id="clip0_114_3249">
<rect width="32" height="23" fill="white"/>
</clipPath>
</defs>
</svg>
