<svg width="32" height="23" viewBox="0 0 32 23" fill="none" xmlns="http://www.w3.org/2000/svg">
<g clip-path="url(#clip0_114_3253)">
<path d="M8.19172 8.98811C6.3474 8.98811 4.84215 9.46968 3.38443 10.947C3.86928 5.6001 6.46148 2.7915 13.2494 1.16662L13.2462 0C4.60131 0.991085 0 6.59584 0 13.26C0 19.4458 2.85839 23 7.49455 23C11.5381 23 14.5708 20.5394 14.5708 15.6523C14.5708 11.5513 11.9564 8.98811 8.19172 8.98811Z" fill="#CCCCCC"/>
<path d="M25.6209 8.98811C23.7766 8.98811 22.2713 9.46968 20.8136 10.947C21.2985 5.6001 23.8907 2.7915 30.6786 1.16662L30.6754 0C22.0305 0.991085 17.4292 6.59584 17.4292 13.26C17.4292 19.4458 20.2876 23 24.9238 23C28.9673 23 32 20.5394 32 15.6523C32 11.5513 29.3856 8.98811 25.6209 8.98811Z" fill="#CCCCCC"/>
</g>
<defs>
<clipPath id="clip0_114_3253">
<rect width="32" height="23" fill="white"/>
</clipPath>
</defs>
</svg>
