<svg width="24" height="25" viewBox="0 0 24 25" fill="none" xmlns="http://www.w3.org/2000/svg">
<path d="M11.283 6.76851L12 7.50599L12.717 6.76851C12.7593 6.72497 12.8063 6.67529 12.8581 6.62062C13.4993 5.94316 14.8652 4.5 17 4.5C18.2999 4.5 19.2781 5.2489 19.9799 6.30386C20.6991 7.38503 21 8.6096 21 9.15714C21 11.5874 19.7259 13.5287 17.8059 15.3802C16.8465 16.3053 15.758 17.1773 14.6322 18.0619C14.5092 18.1585 14.3856 18.2554 14.2618 18.3525C13.5031 18.9474 12.732 19.5519 12.0024 20.171C11.3622 19.6202 10.6885 19.0696 10.0183 18.5218C9.80634 18.3486 9.59478 18.1757 9.38474 18.0032C8.26204 17.081 7.1692 16.1587 6.20584 15.1988C4.25851 13.2584 3 11.3184 3 9.15714C3 8.6096 3.30091 7.38503 4.02011 6.30386C4.72187 5.2489 5.70014 4.5 7 4.5C9.12243 4.5 10.5228 5.97081 11.1582 6.63826C11.2037 6.68608 11.2453 6.72977 11.283 6.76851Z" stroke="white" stroke-width="2"/>
</svg>
