<svg width="320" height="101" viewBox="0 0 320 101" fill="none" xmlns="http://www.w3.org/2000/svg">
<path d="M20.6341 86.9668H19.5677V95.8809H20.6341V86.9668ZM10.722 93.2832L11.3098 94.1172C12.7317 93.5498 13.8391 92.3535 14.3655 90.8633C14.9055 92.2646 15.9993 93.3584 17.4075 93.8984L17.968 93.0371C16.1565 92.3809 14.8919 90.7197 14.9055 88.8672V87.6504H13.8118V88.8672C13.8118 90.7881 12.5608 92.5654 10.722 93.2832ZM12.7864 98.8477H21.0169V97.9453H13.8528V95.0605H12.7864V98.8477ZM32.2415 87.7461H24.1204V88.6348H31.2024V88.6758C31.1956 89.7559 31.1956 91.1436 30.7991 93.0508H22.6985V93.9395H25.597V99.1074H26.6634V93.9395H29.7805V99.1074H30.847V93.9395H33.7727V93.0508H31.8997C32.2415 91.123 32.2415 89.7627 32.2415 88.6758V87.7461ZM44.2044 86.9531H43.138V99.1074H44.2044V92.8047H46.1731V91.9023H44.2044V86.9531ZM34.8802 95.9492L35.4817 96.7969C39.4397 94.8418 41.053 91.7041 41.0598 88.2656H35.4407V89.168H39.9729C39.7268 92.0459 38.0179 94.3906 34.8802 95.9492ZM56.9329 86.9531H55.8665V93.4746H56.9329V86.9531ZM47.1848 90.3438C47.178 91.998 48.5247 93.1396 50.3704 93.1328C52.2161 93.1396 53.5491 91.998 53.5559 90.3438C53.5491 88.6826 52.2161 87.541 50.3704 87.5547C48.5247 87.541 47.178 88.6826 47.1848 90.3438ZM48.2376 90.3438C48.2239 89.2295 49.1194 88.4502 50.3704 88.457C51.6077 88.4502 52.5032 89.2295 52.5032 90.3438C52.5032 91.4512 51.6077 92.2373 50.3704 92.2441C49.1194 92.2373 48.2239 91.4512 48.2376 90.3438ZM49.0579 98.9434H56.9329V94.0898H55.8665V95.5664H50.1243V94.0898H49.0579V98.9434ZM50.1243 98.0684V96.4277H55.8665V98.0684H50.1243ZM66.4485 88.1016H65.2044L62.7434 89.7422V90.9863L65.1497 89.3867H65.2044V98H66.4485V88.1016ZM72.3274 98.1367C74.5218 98.1367 75.7864 96.291 75.7864 93.0508C75.7864 89.8379 74.5013 87.9648 72.3274 87.9648C70.1468 87.9648 68.8616 89.8379 68.8684 93.0508C68.8616 96.291 70.1331 98.1367 72.3274 98.1367ZM70.0579 93.0508C70.0647 90.4873 70.9055 89.0381 72.3274 89.0312C73.7493 89.0381 74.5901 90.4873 74.5833 93.0508C74.5901 95.6143 73.7561 97.043 72.3274 97.043C70.8919 97.043 70.0647 95.6143 70.0579 93.0508ZM79.5188 92.6953C80.7903 92.7021 81.4944 91.7314 81.5013 90.3164C81.4944 88.9219 80.8177 87.9512 79.5188 87.9512C78.2679 87.9512 77.5296 88.9219 77.5364 90.3164C77.5296 91.7314 78.2405 92.7021 79.5188 92.6953ZM78.5071 98H79.6145L86.4231 88.1016H85.3157L78.5071 98ZM78.5345 90.3164C78.5345 89.4072 78.8694 88.8057 79.5188 88.7988C80.2093 88.7852 80.5032 89.4072 80.5032 90.3164C80.5032 91.2393 80.1888 91.8477 79.5188 91.8477C78.8557 91.8477 78.5345 91.2393 78.5345 90.3164ZM83.5794 95.7715C83.5657 97.1797 84.2698 98.1436 85.5618 98.1367C86.8264 98.1436 87.5305 97.1797 87.5305 95.7715C87.5305 94.3633 86.8401 93.3994 85.5618 93.3926C84.2971 93.3994 83.5657 94.3633 83.5794 95.7715ZM84.5638 95.7715C84.5706 94.8486 84.8987 94.2471 85.5618 94.2402C86.2454 94.2266 86.5325 94.8486 86.5325 95.7715C86.5325 96.6875 86.2249 97.2959 85.5618 97.2891C84.8919 97.2959 84.5706 96.6875 84.5638 95.7715ZM102.077 86.9121H101.011V93.6387H102.077V90.7539H103.923V89.8652H102.077V86.9121ZM92.6028 88.9219H99.8489V88.0605H96.7591V86.8301H95.6927V88.0605H92.6028V88.9219ZM93.3001 91.4648C93.2932 92.7021 94.4554 93.4541 96.2259 93.4609C97.9895 93.4541 99.138 92.7021 99.1516 91.4648C99.138 90.2344 97.9895 89.4756 96.2259 89.4688C94.4554 89.4756 93.2932 90.2344 93.3001 91.4648ZM94.3255 95.0742H101.011V96.168H94.3528V98.9707H102.529V98.1504H95.4055V96.9609H102.077V94.2676H94.3255V95.0742ZM94.3255 91.4648C94.3186 90.7402 95.0706 90.2686 96.2259 90.2617C97.3743 90.2686 98.1263 90.7402 98.1399 91.4648C98.1263 92.1963 97.3743 92.6543 96.2259 92.6543C95.0706 92.6543 94.3186 92.1963 94.3255 91.4648ZM114.71 86.9668H113.644V95.8535H114.71V86.9668ZM104.962 90.7949C104.955 92.5654 106.329 93.7959 108.148 93.7891C109.966 93.7959 111.326 92.5654 111.333 90.7949C111.326 89.0449 109.966 87.8213 108.148 87.8145C106.329 87.8213 104.955 89.0449 104.962 90.7949ZM106.015 90.7949C106.001 89.6055 106.917 88.7578 108.148 88.7578C109.358 88.7578 110.281 89.6055 110.281 90.7949C110.281 92.0049 109.358 92.8457 108.148 92.8457C106.917 92.8457 106.001 92.0049 106.015 90.7949ZM106.863 98.8477H115.093V97.9453H107.929V94.9512H106.863V98.8477ZM126.427 87.7188H118.183V88.6074H125.415V88.8398C125.408 89.3115 125.408 89.8105 125.381 90.3438L117.841 90.6035L117.978 91.5469L125.32 91.1709C125.251 91.8613 125.135 92.627 124.923 93.4883H116.775V94.3906H121.792V99.1074H122.872V94.3906H127.849V93.4883H125.996C126.427 91.499 126.427 90.0977 126.427 88.8398V87.7188ZM138.896 87.5137H129.913V88.4023H131.786V91.1914H129.954V92.0527H133.878V93.543H128.874V94.418H139.949V93.543H134.945V92.0527H138.855V91.1914H137.023V88.4023H138.896V87.5137ZM130.31 98.8477H138.718V97.9453H131.39V95.4844H130.31V98.8477ZM132.853 91.1914V88.4023H135.956V91.1914H132.853Z" fill="#666666"/>
<path d="M132.471 1C134.127 1 135.471 2.34314 135.471 4V23.1197C135.471 23.1262 135.47 23.1294 135.468 23.1328C135.466 23.1374 135.46 23.1469 135.448 23.1586C135.42 23.1839 135.376 23.2045 135.324 23.2045C128.81 23.2045 123.618 28.7622 123.618 35.5C123.618 42.2378 128.81 47.7955 135.324 47.7955C135.376 47.7955 135.42 47.8161 135.448 47.8414C135.451 47.8443 135.454 47.8471 135.456 47.8497C135.463 47.8575 135.466 47.8637 135.468 47.8672C135.47 47.8706 135.471 47.8738 135.471 47.8803V67C135.471 68.6569 134.127 70 132.471 70H18.1177C16.4608 70 15.1177 68.6569 15.1177 67V48.5263C15.1177 48.2056 15.4514 47.7955 16.0294 47.7955C22.5427 47.7955 27.7353 42.2378 27.7353 35.5C27.7353 28.7622 22.5427 23.2045 16.0294 23.2045C15.4514 23.2045 15.1177 22.7944 15.1177 22.4737V4C15.1177 2.34315 16.4608 1 18.1177 1H132.471Z" stroke="black" stroke-width="2"/>
<rect x="40" y="8" width="1" height="5" fill="#111111"/>
<rect x="40" y="16" width="1" height="5" fill="#111111"/>
<rect x="40" y="24" width="1" height="5" fill="#111111"/>
<rect x="40" y="32" width="1" height="5" fill="#111111"/>
<rect x="40" y="40" width="1" height="5" fill="#111111"/>
<rect x="40" y="48" width="1" height="5" fill="#111111"/>
<rect x="40" y="56" width="1" height="5" fill="#111111"/>
<path d="M64.4775 16.7891H60.3174L55.0732 20.1289V24.0254L59.9365 20.9785H60.0537V38H64.4775V16.7891ZM77.6318 38.293C82.9346 38.293 86.1572 34.3672 86.1572 27.3945C86.1572 20.4658 82.9199 16.4961 77.6318 16.4961C72.3438 16.4961 69.1064 20.4658 69.1064 27.3945C69.1064 34.3379 72.3145 38.293 77.6318 38.293ZM73.6182 27.3945C73.6182 22.5459 75.1855 20.1143 77.6318 20.0996C80.0781 20.1143 81.6602 22.5459 81.6455 27.3945C81.6602 32.2871 80.0928 34.6602 77.6318 34.6602C75.1709 34.6602 73.5889 32.2871 73.6182 27.3945ZM94.7705 27.3945C97.9053 27.3945 99.6484 25.1094 99.6631 21.7402C99.6484 18.3857 97.9492 16.0566 94.7705 16.0566C91.6797 16.0566 89.8779 18.3857 89.8779 21.7402C89.8779 25.0801 91.5918 27.3945 94.7705 27.3945ZM92.8662 21.7402C92.8809 19.9385 93.5254 18.6787 94.7705 18.6641C96.0889 18.6641 96.6602 19.9092 96.6748 21.7402C96.6602 23.5713 96.0303 24.7725 94.7705 24.7871C93.54 24.7725 92.8809 23.5713 92.8662 21.7402ZM92.9248 38H96.2061L110.796 16.7891H107.515L92.9248 38ZM104.204 33.0488C104.204 36.3887 105.918 38.7031 109.067 38.7031C112.231 38.7031 113.975 36.418 113.989 33.0488C113.975 29.6943 112.275 27.3799 109.067 27.3652C106.006 27.3799 104.204 29.6943 104.204 33.0488ZM107.192 33.0488C107.207 31.2471 107.837 29.9873 109.067 30.002C110.4 29.9727 110.986 31.2178 111.001 33.0488C110.986 34.8799 110.356 36.0957 109.067 36.0957C107.866 36.0957 107.207 34.8799 107.192 33.0488Z" fill="#111111"/>
<path d="M57.4945 50.7031H58.6371C58.2943 48.7925 56.7899 47.6816 54.9301 47.6816C52.5687 47.6816 50.8612 49.4971 50.8676 52.4043C50.8612 55.3115 52.5687 57.127 54.9301 57.127C56.7963 57.127 58.307 55.9971 58.6371 54.1182H57.4945C57.2216 55.375 56.1425 56.0542 54.9301 56.0605C53.267 56.0542 51.9784 54.772 51.9721 52.4043C51.9784 50.0303 53.267 48.748 54.9301 48.748C56.1425 48.748 57.2279 49.4336 57.4945 50.7031ZM70.8662 52.4043C70.8726 49.4971 69.1587 47.6816 66.8037 47.6816C64.4424 47.6816 62.7349 49.4971 62.7412 52.4043C62.7349 55.3115 64.4424 57.127 66.8037 57.127C69.1587 57.127 70.8726 55.3115 70.8662 52.4043ZM63.8457 52.4043C63.8521 50.0303 65.1407 48.748 66.8037 48.748C68.4668 48.748 69.7554 50.0303 69.7618 52.4043C69.7554 54.772 68.4668 56.0542 66.8037 56.0605C65.1407 56.0542 63.8521 54.772 63.8457 52.4043ZM81.4196 47.8086V53.8008C81.4133 55.1338 80.4992 56.0923 78.9821 56.0986C77.465 56.0923 76.5383 55.1338 76.5446 53.8008V47.8086H75.402V53.8896C75.402 55.7812 76.8112 57.1587 78.9821 57.165C81.1467 57.1587 82.5622 55.7812 82.5622 53.8896V47.8086H81.4196ZM87.4534 57H88.596V53.6611H90.5892C92.7283 53.6611 93.7122 52.3599 93.7122 50.7285C93.7122 49.0908 92.7283 47.8086 90.5765 47.8086H87.4534V57ZM88.596 52.6455V48.8242H90.5257C92.0047 48.8242 92.576 49.6304 92.5823 50.7285C92.576 51.8203 92.0047 52.6455 90.5384 52.6455H88.596ZM105.941 52.4043C105.948 49.4971 104.234 47.6816 101.879 47.6816C99.5175 47.6816 97.81 49.4971 97.8164 52.4043C97.81 55.3115 99.5175 57.127 101.879 57.127C104.234 57.127 105.948 55.3115 105.941 52.4043ZM98.9209 52.4043C98.9272 50.0303 100.216 48.748 101.879 48.748C103.542 48.748 104.831 50.0303 104.837 52.4043C104.831 54.772 103.542 56.0542 101.879 56.0605C100.216 56.0542 98.9272 54.772 98.9209 52.4043ZM117.777 47.8086H116.647V54.9814H116.558L111.582 47.8086H110.477V57H111.62V49.8398H111.709L116.685 57H117.777V47.8086Z" fill="#111111"/>
<path d="M182.389 89.373V87.7188H181.363V89.373C181.356 90.7266 180.379 92.2988 178.779 92.9961L179.367 93.8301C180.563 93.3105 181.438 92.2783 181.883 91.123C182.32 92.1689 183.161 93.0371 184.33 93.4883L184.891 92.668C183.332 92.0801 182.396 90.7197 182.389 89.373ZM180.994 96.9199C180.98 98.2803 182.539 99.0801 185.068 99.0801C187.584 99.0801 189.149 98.2803 189.156 96.9199C189.149 95.5459 187.584 94.7393 185.068 94.7461C182.539 94.7393 180.98 95.5459 180.994 96.9199ZM182.061 96.9199C182.047 96.0791 183.202 95.5732 185.068 95.5664C186.914 95.5732 188.076 96.0791 188.09 96.9199C188.076 97.7471 186.914 98.2529 185.068 98.2461C183.202 98.2529 182.047 97.7471 182.061 96.9199ZM185.438 94.0898H186.449V91.123H188.062V94.4727H189.088V86.9668H188.062V90.2344H186.449V87.1992H185.438V94.0898ZM194.311 87.4043C192.472 87.4111 191.146 88.5186 191.152 90.0977C191.146 91.6836 192.472 92.7773 194.311 92.7773C196.129 92.7773 197.448 91.6836 197.455 90.0977C197.448 88.5186 196.129 87.4111 194.311 87.4043ZM192.205 90.0977C192.191 89.0449 193.087 88.2998 194.311 88.3066C195.514 88.2998 196.416 89.0449 196.416 90.0977C196.416 91.1641 195.514 91.9023 194.311 91.9023C193.087 91.9023 192.191 91.1641 192.205 90.0977ZM192.998 94.6504H199.834V95.9082H193.025V98.9434H201.338V98.082H194.078V96.7148H200.9V93.7891H192.998V94.6504ZM199.834 93.2012H200.9V86.9531H199.834V93.2012ZM212.617 87.7188H204.373V88.6074H211.605V88.8398C211.599 89.3115 211.599 89.8105 211.571 90.3438L204.031 90.6035L204.168 91.5469L211.51 91.1709C211.441 91.8613 211.325 92.627 211.113 93.4883H202.965V94.3906H207.982V99.1074H209.062V94.3906H214.039V93.4883H212.187C212.617 91.499 212.617 90.0977 212.617 88.8398V87.7188ZM225.086 87.5137H216.104V88.4023H217.977V91.1914H216.145V92.0527H220.068V93.543H215.064V94.418H226.139V93.543H221.135V92.0527H225.045V91.1914H223.213V88.4023H225.086V87.5137ZM216.5 98.8477H224.908V97.9453H217.58V95.4844H216.5V98.8477ZM219.043 91.1914V88.4023H222.146V91.1914H219.043ZM231.115 98H237.541V96.9062H232.824V96.8242L235.094 94.4863C236.844 92.6816 237.356 91.8203 237.363 90.7129C237.356 89.1748 236.085 87.9648 234.287 87.9648C232.496 87.9648 231.143 89.1406 231.156 90.8906H232.318C232.325 89.7832 233.063 89.0381 234.246 89.0312C235.36 89.0381 236.208 89.6943 236.215 90.7129C236.208 91.6289 235.647 92.2988 234.479 93.543L231.102 97.0977L231.115 98ZM242.572 98.1367C244.767 98.1367 246.031 96.291 246.031 93.0508C246.031 89.8379 244.746 87.9648 242.572 87.9648C240.392 87.9648 239.106 89.8379 239.113 93.0508C239.106 96.291 240.378 98.1367 242.572 98.1367ZM240.303 93.0508C240.31 90.4873 241.15 89.0381 242.572 89.0312C243.994 89.0381 244.835 90.4873 244.828 93.0508C244.835 95.6143 244.001 97.043 242.572 97.043C241.137 97.043 240.31 95.6143 240.303 93.0508ZM249.764 92.6953C251.035 92.7021 251.739 91.7314 251.746 90.3164C251.739 88.9219 251.062 87.9512 249.764 87.9512C248.513 87.9512 247.774 88.9219 247.781 90.3164C247.774 91.7314 248.485 92.7021 249.764 92.6953ZM248.752 98H249.859L256.668 88.1016H255.561L248.752 98ZM248.779 90.3164C248.779 89.4072 249.114 88.8057 249.764 88.7988C250.454 88.7852 250.748 89.4072 250.748 90.3164C250.748 91.2393 250.434 91.8477 249.764 91.8477C249.101 91.8477 248.779 91.2393 248.779 90.3164ZM253.824 95.7715C253.811 97.1797 254.515 98.1436 255.807 98.1367C257.071 98.1436 257.775 97.1797 257.775 95.7715C257.775 94.3633 257.085 93.3994 255.807 93.3926C254.542 93.3994 253.811 94.3633 253.824 95.7715ZM254.809 95.7715C254.815 94.8486 255.144 94.2471 255.807 94.2402C256.49 94.2266 256.777 94.8486 256.777 95.7715C256.777 96.6875 256.47 97.2959 255.807 97.2891C255.137 97.2959 254.815 96.6875 254.809 95.7715ZM272.322 86.9121H271.256V93.6387H272.322V90.7539H274.168V89.8652H272.322V86.9121ZM262.848 88.9219H270.094V88.0605H267.004V86.8301H265.938V88.0605H262.848V88.9219ZM263.545 91.4648C263.538 92.7021 264.7 93.4541 266.471 93.4609C268.234 93.4541 269.383 92.7021 269.396 91.4648C269.383 90.2344 268.234 89.4756 266.471 89.4688C264.7 89.4756 263.538 90.2344 263.545 91.4648ZM264.57 95.0742H271.256V96.168H264.598V98.9707H272.773V98.1504H265.65V96.9609H272.322V94.2676H264.57V95.0742ZM264.57 91.4648C264.563 90.7402 265.315 90.2686 266.471 90.2617C267.619 90.2686 268.371 90.7402 268.385 91.4648C268.371 92.1963 267.619 92.6543 266.471 92.6543C265.315 92.6543 264.563 92.1963 264.57 91.4648ZM284.955 86.9668H283.889V95.8535H284.955V86.9668ZM275.207 90.7949C275.2 92.5654 276.574 93.7959 278.393 93.7891C280.211 93.7959 281.571 92.5654 281.578 90.7949C281.571 89.0449 280.211 87.8213 278.393 87.8145C276.574 87.8213 275.2 89.0449 275.207 90.7949ZM276.26 90.7949C276.246 89.6055 277.162 88.7578 278.393 88.7578C279.603 88.7578 280.525 89.6055 280.525 90.7949C280.525 92.0049 279.603 92.8457 278.393 92.8457C277.162 92.8457 276.246 92.0049 276.26 90.7949ZM277.107 98.8477H285.338V97.9453H278.174V94.9512H277.107V98.8477ZM296.672 87.7188H288.428V88.6074H295.66V88.8398C295.653 89.3115 295.653 89.8105 295.626 90.3438L288.086 90.6035L288.223 91.5469L295.564 91.1709C295.496 91.8613 295.38 92.627 295.168 93.4883H287.02V94.3906H292.037V99.1074H293.117V94.3906H298.094V93.4883H296.241C296.672 91.499 296.672 90.0977 296.672 88.8398V87.7188ZM309.141 87.5137H300.158V88.4023H302.031V91.1914H300.199V92.0527H304.123V93.543H299.119V94.418H310.193V93.543H305.189V92.0527H309.1V91.1914H307.268V88.4023H309.141V87.5137ZM300.555 98.8477H308.963V97.9453H301.635V95.4844H300.555V98.8477ZM303.098 91.1914V88.4023H306.201V91.1914H303.098Z" fill="#666666"/>
<path d="M301.882 1C303.539 1 304.882 2.34314 304.882 4V23.1197C304.882 23.1262 304.881 23.1294 304.88 23.1328C304.878 23.1374 304.872 23.1469 304.86 23.1586C304.832 23.1839 304.787 23.2045 304.735 23.2045C298.222 23.2045 293.03 28.7622 293.03 35.5C293.03 42.2378 298.222 47.7955 304.735 47.7955C304.787 47.7955 304.832 47.8161 304.86 47.8414C304.863 47.8443 304.866 47.8471 304.868 47.8497C304.875 47.8575 304.878 47.8637 304.88 47.8672C304.881 47.8706 304.882 47.8738 304.882 47.8803V67C304.882 68.6569 303.539 70 301.882 70H187.53C185.873 70 184.53 68.6569 184.53 67V48.5263C184.53 48.2056 184.863 47.7955 185.441 47.7955C191.955 47.7955 197.147 42.2378 197.147 35.5C197.147 28.7622 191.955 23.2045 185.441 23.2045C184.863 23.2045 184.53 22.7944 184.53 22.4737V4C184.53 2.34315 185.873 1 187.53 1H301.882Z" stroke="black" stroke-width="2"/>
<rect x="209.412" y="8" width="1" height="5" fill="#111111"/>
<rect x="209.412" y="16" width="1" height="5" fill="#111111"/>
<rect x="209.412" y="24" width="1" height="5" fill="#111111"/>
<rect x="209.412" y="32" width="1" height="5" fill="#111111"/>
<rect x="209.412" y="40" width="1" height="5" fill="#111111"/>
<rect x="209.412" y="48" width="1" height="5" fill="#111111"/>
<rect x="209.412" y="56" width="1" height="5" fill="#111111"/>
<path d="M222.213 38H237.389V34.3672H228.336V34.25L231.559 31.1152C235.924 27.1602 237.096 25.1826 237.096 22.7656C237.096 19.0889 234.078 16.4961 229.537 16.4961C225.069 16.4961 221.993 19.1475 222.008 23.293H226.197C226.183 21.2568 227.486 19.9971 229.479 20.0117C231.427 19.9971 232.848 21.1689 232.848 23.0586C232.848 24.7432 231.778 25.915 229.801 27.8047L222.184 34.8066L222.213 38ZM248.756 38.293C254.059 38.293 257.281 34.3672 257.281 27.3945C257.281 20.4658 254.044 16.4961 248.756 16.4961C243.468 16.4961 240.23 20.4658 240.23 27.3945C240.23 34.3379 243.438 38.293 248.756 38.293ZM244.742 27.3945C244.742 22.5459 246.31 20.1143 248.756 20.0996C251.202 20.1143 252.784 22.5459 252.77 27.3945C252.784 32.2871 251.217 34.6602 248.756 34.6602C246.295 34.6602 244.713 32.2871 244.742 27.3945ZM265.895 27.3945C269.029 27.3945 270.772 25.1094 270.787 21.7402C270.772 18.3857 269.073 16.0566 265.895 16.0566C262.804 16.0566 261.002 18.3857 261.002 21.7402C261.002 25.0801 262.716 27.3945 265.895 27.3945ZM263.99 21.7402C264.005 19.9385 264.649 18.6787 265.895 18.6641C267.213 18.6641 267.784 19.9092 267.799 21.7402C267.784 23.5713 267.154 24.7725 265.895 24.7871C264.664 24.7725 264.005 23.5713 263.99 21.7402ZM264.049 38H267.33L281.92 16.7891H278.639L264.049 38ZM275.328 33.0488C275.328 36.3887 277.042 38.7031 280.191 38.7031C283.355 38.7031 285.099 36.418 285.113 33.0488C285.099 29.6943 283.399 27.3799 280.191 27.3652C277.13 27.3799 275.328 29.6943 275.328 33.0488ZM278.316 33.0488C278.331 31.2471 278.961 29.9873 280.191 30.002C281.524 29.9727 282.11 31.2178 282.125 33.0488C282.11 34.8799 281.48 36.0957 280.191 36.0957C278.99 36.0957 278.331 34.8799 278.316 33.0488Z" fill="#111111"/>
<path d="M226.495 50.7031H227.637C227.294 48.7925 225.79 47.6816 223.93 47.6816C221.569 47.6816 219.861 49.4971 219.868 52.4043C219.861 55.3115 221.569 57.127 223.93 57.127C225.796 57.127 227.307 55.9971 227.637 54.1182H226.495C226.222 55.375 225.142 56.0542 223.93 56.0605C222.267 56.0542 220.978 54.772 220.972 52.4043C220.978 50.0303 222.267 48.748 223.93 48.748C225.142 48.748 226.228 49.4336 226.495 50.7031ZM239.866 52.4043C239.873 49.4971 238.159 47.6816 235.804 47.6816C233.442 47.6816 231.735 49.4971 231.741 52.4043C231.735 55.3115 233.442 57.127 235.804 57.127C238.159 57.127 239.873 55.3115 239.866 52.4043ZM232.846 52.4043C232.852 50.0303 234.141 48.748 235.804 48.748C237.467 48.748 238.755 50.0303 238.762 52.4043C238.755 54.772 237.467 56.0542 235.804 56.0605C234.141 56.0542 232.852 54.772 232.846 52.4043ZM250.42 47.8086V53.8008C250.413 55.1338 249.499 56.0923 247.982 56.0986C246.465 56.0923 245.538 55.1338 245.545 53.8008V47.8086H244.402V53.8896C244.402 55.7812 245.811 57.1587 247.982 57.165C250.147 57.1587 251.562 55.7812 251.562 53.8896V47.8086H250.42ZM256.453 57H257.596V53.6611H259.589C261.728 53.6611 262.712 52.3599 262.712 50.7285C262.712 49.0908 261.728 47.8086 259.576 47.8086H256.453V57ZM257.596 52.6455V48.8242H259.526C261.005 48.8242 261.576 49.6304 261.582 50.7285C261.576 51.8203 261.005 52.6455 259.538 52.6455H257.596ZM274.941 52.4043C274.948 49.4971 273.234 47.6816 270.879 47.6816C268.518 47.6816 266.81 49.4971 266.816 52.4043C266.81 55.3115 268.518 57.127 270.879 57.127C273.234 57.127 274.948 55.3115 274.941 52.4043ZM267.921 52.4043C267.927 50.0303 269.216 48.748 270.879 48.748C272.542 48.748 273.831 50.0303 273.837 52.4043C273.831 54.772 272.542 56.0542 270.879 56.0605C269.216 56.0542 267.927 54.772 267.921 52.4043ZM286.777 47.8086H285.647V54.9814H285.558L280.582 47.8086H279.477V57H280.62V49.8398H280.709L285.685 57H286.777V47.8086Z" fill="#111111"/>
</svg>
