<svg width="40" height="40" viewBox="0 0 40 40" fill="none" xmlns="http://www.w3.org/2000/svg">
<rect width="40" height="40" rx="20" fill="#111111"/>
<path d="M14.6348 15.1016H13.1582L10.6973 16.7148V18.1504L13.0625 16.6055H13.1172V25H14.6348V15.1016ZM19.8011 23.7285C20.3275 23.7217 20.765 23.291 20.7718 22.7578C20.765 22.2246 20.3275 21.7871 19.8011 21.7871C19.2679 21.7871 18.8236 22.2246 18.8304 22.7578C18.8236 23.291 19.2679 23.7217 19.8011 23.7285ZM18.8304 17.3574C18.8236 17.8906 19.2679 18.3213 19.8011 18.3281C20.3275 18.3213 20.765 17.8906 20.7718 17.3574C20.765 16.8242 20.3275 16.3867 19.8011 16.3867C19.2679 16.3867 18.8236 16.8242 18.8304 17.3574ZM27.9616 15.1016H26.485L24.0241 16.7148V18.1504L26.3893 16.6055H26.444V25H27.9616V15.1016Z" fill="white"/>
</svg>
