<svg width="44" height="44" viewBox="0 0 44 44" fill="none" xmlns="http://www.w3.org/2000/svg">
<g clip-path="url(#clip0_1220_7203)">
<path d="M26.2264 12H17.7721C14.5844 12 12 14.5844 12 17.7721V26.2264C12 29.4141 14.5844 31.9986 17.7721 31.9986H26.2264C29.4141 31.9986 31.9986 29.4141 31.9986 26.2264V17.7721C32 14.5844 29.4156 12 26.2264 12ZM30.1576 26.3751C30.1576 28.4908 28.4427 30.2072 26.3256 30.2072H17.673C15.5573 30.2072 13.841 28.4922 13.841 26.3751V17.724C13.841 15.6083 15.5559 13.8919 17.673 13.8919H26.3256C28.4413 13.8919 30.1576 15.6069 30.1576 17.724V26.3765V26.3751Z" fill="white"/>
<path d="M21.9993 16.8604C19.1331 16.8604 16.8106 19.1842 16.8106 22.0491C16.8106 24.9139 19.1345 27.2377 21.9993 27.2377C24.8641 27.2377 27.188 24.9139 27.188 22.0491C27.188 19.1842 24.8641 16.8604 21.9993 16.8604ZM21.9993 25.4138C20.1413 25.4138 18.636 23.907 18.636 22.0505C18.636 20.1939 20.1428 18.6872 21.9993 18.6872C23.8559 18.6872 25.3626 20.1939 25.3626 22.0505C25.3626 23.907 23.8559 25.4138 21.9993 25.4138Z" fill="white"/>
<path d="M27.3622 17.8729C28.0301 17.8729 28.5716 17.3314 28.5716 16.6635C28.5716 15.9956 28.0301 15.4541 27.3622 15.4541C26.6943 15.4541 26.1528 15.9956 26.1528 16.6635C26.1528 17.3314 26.6943 17.8729 27.3622 17.8729Z" fill="white"/>
</g>
<defs>
<clipPath id="clip0_1220_7203">
<rect width="20" height="20" fill="white" transform="translate(12 12)"/>
</clipPath>
</defs>
</svg>
