<svg width="44" height="44" viewBox="0 0 44 44" fill="none" xmlns="http://www.w3.org/2000/svg">
<g clip-path="url(#clip0_1220_7196)">
<path d="M31.5828 17.1864C31.3522 16.3269 30.6751 15.6477 29.8155 15.4191C28.2558 15.002 22.0021 15.002 22.0021 15.002C22.0021 15.002 15.7484 15.002 14.1887 15.4191C13.3249 15.6477 12.6478 16.3248 12.4172 17.1864C12 18.7462 12 21.9999 12 21.9999C12 21.9999 12 25.2535 12.4172 26.8133C12.6478 27.6728 13.3249 28.3521 14.1845 28.5806C15.7442 28.9978 21.9979 28.9978 21.9979 28.9978C21.9979 28.9978 28.2516 28.9978 29.8113 28.5806C30.6709 28.35 31.3501 27.6728 31.5786 26.8133C31.9958 25.2535 31.9958 21.9999 31.9958 21.9999C31.9958 21.9999 31.9958 18.7462 31.5786 17.1864H31.5828Z" fill="white"/>
<path d="M20 25L25.195 22L20 19V25Z" fill="#111111"/>
</g>
<defs>
<clipPath id="clip0_1220_7196">
<rect width="20" height="14" fill="white" transform="translate(12 15)"/>
</clipPath>
</defs>
</svg>
