<svg width="44" height="44" viewBox="0 0 44 44" fill="none" xmlns="http://www.w3.org/2000/svg">
<g clip-path="url(#clip0_1220_7230)">
<path d="M27.5802 22.6327C27.5648 20.1018 29.6481 18.8827 29.7407 18.821C28.5525 17.0926 26.716 16.8611 26.0679 16.8457C24.5247 16.6913 23.0278 17.7716 22.2407 17.7716C21.4537 17.7716 20.2346 16.8611 18.9228 16.892C17.2407 16.9228 15.6821 17.895 14.8179 19.392C13.0432 22.4629 14.3704 26.9845 16.0679 29.4691C16.9167 30.6882 17.9197 32.0463 19.216 32C20.4969 31.9537 20.9599 31.1821 22.5031 31.1821C24.0463 31.1821 24.4784 32 25.8056 31.9691C27.179 31.9537 28.0278 30.75 28.8611 29.5154C29.8488 28.1265 30.2346 26.7531 30.25 26.6759C30.2191 26.6759 27.5957 25.6574 27.5648 22.6327H27.5802Z" fill="white"/>
<path d="M25.0802 15.2099C25.7593 14.3611 26.2376 13.1883 26.0988 12C25.1111 12.0463 23.8611 12.679 23.1512 13.5278C22.5185 14.2685 21.9475 15.4722 22.1018 16.6142C23.213 16.6914 24.3549 16.0586 25.0802 15.2099Z" fill="white"/>
</g>
<defs>
<clipPath id="clip0_1220_7230">
<rect width="16.2654" height="20" fill="white" transform="translate(14 12)"/>
</clipPath>
</defs>
</svg>
