<svg width="253" height="24" viewBox="0 0 253 24" fill="none" xmlns="http://www.w3.org/2000/svg">
<path d="M32.7729 9.85031L26.1387 0.655273H21.5054L30.8077 13.6439V23.4642H34.6191V13.6439L44.0762 0.655273H39.3178L32.7729 9.85031Z" fill="#111111"/>
<path d="M18.0506 11.3868C19.3727 10.0707 19.8968 8.82004 19.8968 7.02748C19.8968 3.15651 17.2109 0.655273 13.0481 0.655273H0V23.4642H13.0422C15.4958 23.4642 17.0918 23.3749 18.9618 21.63C20.272 20.4449 20.9628 18.8726 20.9628 17.092C20.9628 14.9183 19.9801 13.0007 18.0447 11.3868H18.0506ZM3.81141 4.46669H13.0422C15.067 4.46669 16.0496 5.31235 16.0496 7.05726C16.0496 9.46917 14.1677 9.82649 13.0422 9.82649H3.81141V4.46669ZM16.3176 18.6999C15.4898 19.5277 14.4953 19.5932 13.3697 19.5932H3.81141V13.7272H13.0422C15.7697 13.7272 17.1514 14.7218 17.1514 16.6751C17.1514 17.4434 16.8536 18.158 16.3176 18.6999Z" fill="#111111"/>
<path d="M50.6353 0.655273H46.7941V23.4642H64.1539V19.623H50.6353V0.655273Z" fill="#111111"/>
<path d="M73.6768 9.85031L67.0426 0.655273H62.4093L71.7115 13.6439V23.4642H75.5229V13.6439L84.98 0.655273H80.2217L73.6768 9.85031Z" fill="#111111"/>
<path d="M105.145 17.0682L92.2162 0.655273H88.6191V23.4642H92.4008V7.11086L105.36 23.4642H109.016V0.655273H105.145V17.0682Z" fill="#111111"/>
<path d="M131.438 17.0682L118.509 0.655273H114.912V23.4642H118.694V7.11086L131.652 23.4642H135.309V0.655273H131.438V17.0682Z" fill="#111111"/>
<circle cx="143.25" cy="21" r="2.25" fill="#111111"/>
<path d="M213.006 0C206.24 0 200.738 5.26452 200.738 11.732C200.738 18.6104 206.115 24 212.976 24C219.836 24 225.244 18.6581 225.244 12.0893C225.244 5.5206 219.866 0 213.006 0ZM213.006 20.129C208.325 20.129 204.519 16.538 204.519 12.1191C204.519 7.33697 208.075 3.87097 212.976 3.87097C217.877 3.87097 221.432 7.40248 221.432 11.9107C221.432 16.4189 217.728 20.129 213.006 20.129Z" fill="#111111"/>
<path d="M244.009 0.655273H230.818V23.4642H234.659V14.025H244.009C248.136 14.025 250.798 11.3808 250.798 7.29547C250.798 3.21011 248.195 0.655273 244.009 0.655273ZM244.009 10.154H234.659V4.49646H244.009C246.093 4.49646 246.986 5.33617 246.986 7.29547C246.986 9.25478 246.01 10.154 244.009 10.154Z" fill="#111111"/>
<path d="M191.834 9.64783H179.358V0.655273H175.547V23.4642H179.358V13.5188H191.834V23.4642H195.676V0.655273H191.834V9.64783Z" fill="#111111"/>
<path d="M167.786 10.8803C165.464 9.49868 163.26 9.49868 160.932 9.49868H157.627C155.268 9.49868 154.172 8.77808 154.172 7.23565C154.172 4.64508 158.246 3.96022 160.396 3.96022C163.094 3.96022 164.684 4.66295 167.238 6.24111L167.477 6.39L169.621 3.33491L169.388 3.1622C166.708 1.13739 163.451 0.0654297 159.979 0.0654297C158.615 0.0654297 157.293 0.261956 156.042 0.643097C153.267 1.54831 150.296 3.76369 150.296 7.27139C150.296 11.6009 154.012 13.2029 157.198 13.2565L160.533 13.316C163.749 13.3756 164.815 13.4292 165.916 14.1319C166.816 14.7096 167.268 15.4778 167.268 16.4128C167.268 19.325 163.129 20.1051 160.688 20.1051C156.668 20.1051 154.286 19.2237 151.6 16.7285L151.391 16.5379L148.705 19.1165L148.914 19.3309C152.112 22.5885 155.495 23.9761 160.235 23.9761C165.22 23.9761 171.044 22.0644 171.044 16.6808C171.044 14.2391 169.853 12.125 167.774 10.8863L167.786 10.8803Z" fill="#111111"/>
</svg>
