<svg width="25" height="24" viewBox="0 0 25 24" fill="none" xmlns="http://www.w3.org/2000/svg">
<path d="M13.0661 20.1611C12.8546 20.3594 12.6639 20.533 12.5 20.6794C12.3361 20.533 12.1454 20.3594 11.9339 20.1611C11.204 19.4768 10.233 18.5055 9.26491 17.3559C7.28135 15.0004 5.5 12.1163 5.5 9.5C5.5 5.64193 8.5353 3 12.5 3C16.4647 3 19.5 5.64193 19.5 9.5C19.5 12.1163 17.7186 15.0004 15.7351 17.3559C14.767 18.5055 13.796 19.4768 13.0661 20.1611Z" stroke="#111111" stroke-width="2"/>
<path d="M12.5 13C14.1569 13 15.5 11.6569 15.5 10C15.5 8.34315 14.1569 7 12.5 7C10.8431 7 9.5 8.34315 9.5 10C9.5 11.6569 10.8431 13 12.5 13Z" fill="#111111"/>
</svg>
