<svg width="24" height="24" viewBox="0 0 24 24" fill="none" xmlns="http://www.w3.org/2000/svg">
<g clip-path="url(#clip0_136_739)">
<path d="M21.5828 7.18668C21.3522 6.32714 20.6751 5.6479 19.8155 5.41939C18.2558 5.0022 12.0021 5.0022 12.0021 5.0022C12.0021 5.0022 5.74843 5.0022 4.18868 5.41939C3.32495 5.6479 2.6478 6.32505 2.41719 7.18668C2 8.74643 2 12.0001 2 12.0001C2 12.0001 2 15.2538 2.41719 16.8135C2.6478 17.6731 3.32495 18.3523 4.18449 18.5808C5.74423 18.998 11.9979 18.998 11.9979 18.998C11.9979 18.998 18.2516 18.998 19.8113 18.5808C20.6709 18.3502 21.3501 17.6731 21.5786 16.8135C21.9958 15.2538 21.9958 12.0001 21.9958 12.0001C21.9958 12.0001 21.9958 8.74643 21.5786 7.18668H21.5828Z" fill="#111111"/>
<path d="M10 15L15.195 12L10 9V15Z" fill="white"/>
</g>
<defs>
<clipPath id="clip0_136_739">
<rect width="20" height="14" fill="white" transform="translate(2 5)"/>
</clipPath>
</defs>
</svg>
