<svg width="44" height="44" viewBox="0 0 44 44" fill="none" xmlns="http://www.w3.org/2000/svg">
<g clip-path="url(#clip0_908_6603)">
<path d="M27.5799 22.6327C27.5644 20.1018 29.6478 18.8827 29.7404 18.821C28.5521 17.0926 26.7157 16.8611 26.0675 16.8457C24.5243 16.6913 23.0274 17.7716 22.2404 17.7716C21.4533 17.7716 20.2342 16.8611 18.9225 16.892C17.2404 16.9228 15.6817 17.895 14.8175 19.392C13.0428 22.4629 14.37 26.9845 16.0675 29.4691C16.9163 30.6882 17.9194 32.0463 19.2157 32C20.4965 31.9537 20.9595 31.1821 22.5027 31.1821C24.0459 31.1821 24.478 32 25.8052 31.9691C27.1786 31.9537 28.0274 30.75 28.8607 29.5154C29.8484 28.1265 30.2342 26.7531 30.2496 26.6759C30.2188 26.6759 27.5953 25.6574 27.5644 22.6327H27.5799Z" fill="white"/>
<path d="M25.0801 15.2099C25.7591 14.3611 26.2375 13.1883 26.0986 12C25.1109 12.0463 23.8609 12.679 23.151 13.5278C22.5183 14.2685 21.9473 15.4722 22.1017 16.6142C23.2128 16.6914 24.3547 16.0586 25.0801 15.2099Z" fill="white"/>
</g>
<defs>
<clipPath id="clip0_908_6603">
<rect width="16.2654" height="20" fill="white" transform="translate(14 12)"/>
</clipPath>
</defs>
</svg>
