<svg width="24" height="24" viewBox="0 0 24 24" fill="none" xmlns="http://www.w3.org/2000/svg">
<path d="M12 22.59V18.99C6.99 18.73 2 16 2 10.5C2 5 6.76 2 12 2C17.24 2 22 5.26 22 10.5C22 15.45 18.56 19.43 13.43 21.9L12 22.59ZM12 4C7.86 4 4 6 4 10.5C4 15 8.36 17 12.5 17H14V19.3C17.64 17 20 14.22 20 10.5C20 6.36 16.14 4 12 4Z" fill="black"/>
<path d="M10.25 8.71973V13H9.54395V9.55762L8.49805 9.91211V9.3291L10.165 8.71973H10.25ZM11.7822 12.6484C11.7822 12.5391 11.8193 12.4473 11.8936 12.373C11.9678 12.2969 12.0684 12.2588 12.1953 12.2588C12.3242 12.2588 12.4248 12.2969 12.4971 12.373C12.5713 12.4473 12.6084 12.5391 12.6084 12.6484C12.6084 12.7578 12.5713 12.8496 12.4971 12.9238C12.4248 12.998 12.3242 13.0352 12.1953 13.0352C12.0684 13.0352 11.9678 12.998 11.8936 12.9238C11.8193 12.8496 11.7822 12.7578 11.7822 12.6484ZM11.7852 10.1523C11.7852 10.043 11.8223 9.95117 11.8965 9.87695C11.9707 9.80078 12.0713 9.7627 12.1982 9.7627C12.3271 9.7627 12.4277 9.80078 12.5 9.87695C12.5742 9.95117 12.6113 10.043 12.6113 10.1523C12.6113 10.2617 12.5742 10.3535 12.5 10.4277C12.4277 10.502 12.3271 10.5391 12.1982 10.5391C12.0713 10.5391 11.9707 10.502 11.8965 10.4277C11.8223 10.3535 11.7852 10.2617 11.7852 10.1523ZM15.2422 8.71973V13H14.5361V9.55762L13.4902 9.91211V9.3291L15.1572 8.71973H15.2422Z" fill="black"/>
</svg>
