<svg width="20" height="19" viewBox="0 0 20 19" fill="none" xmlns="http://www.w3.org/2000/svg">
<path d="M9.283 3.76851L10 4.50599L10.717 3.76851C10.7593 3.72497 10.8063 3.67529 10.8581 3.62062C11.4993 2.94316 12.8652 1.5 15 1.5C16.2999 1.5 17.2781 2.2489 17.9799 3.30386C18.6991 4.38503 19 5.6096 19 6.15714C19 8.58736 17.7259 10.5287 15.8059 12.3802C14.8465 13.3053 13.758 14.1773 12.6322 15.0619C12.5092 15.1585 12.3856 15.2554 12.2618 15.3525C11.5031 15.9474 10.732 16.5519 10.0024 17.171C9.36221 16.6202 8.68848 16.0696 8.01825 15.5218C7.80634 15.3486 7.59478 15.1757 7.38474 15.0032C6.26204 14.081 5.1692 13.1587 4.20584 12.1988C2.25851 10.2584 1 8.31843 1 6.15714C1 5.6096 1.30091 4.38503 2.02011 3.30386C2.72187 2.2489 3.70014 1.5 5 1.5C7.12243 1.5 8.52276 2.97081 9.15822 3.63826C9.20375 3.68608 9.24535 3.72977 9.283 3.76851Z" stroke="white" stroke-width="2"/>
</svg>
