<svg width="20" height="18" viewBox="0 0 20 18" fill="none" xmlns="http://www.w3.org/2000/svg">
<path d="M9.283 3.26851L10 4.00599L10.717 3.26851C10.7593 3.22497 10.8063 3.17529 10.8581 3.12062C11.4993 2.44316 12.8652 1 15 1C16.2999 1 17.2781 1.7489 17.9799 2.80386C18.6991 3.88503 19 5.1096 19 5.65714C19 8.08736 17.7259 10.0287 15.8059 11.8802C14.8465 12.8053 13.758 13.6773 12.6322 14.5619C12.5092 14.6585 12.3856 14.7554 12.2618 14.8525C11.5031 15.4474 10.732 16.0519 10.0024 16.671C9.36221 16.1202 8.68848 15.5696 8.01825 15.0218C7.80634 14.8486 7.59478 14.6757 7.38474 14.5032C6.26204 13.581 5.1692 12.6587 4.20584 11.6988C2.25851 9.7584 1 7.81843 1 5.65714C1 5.1096 1.30091 3.88503 2.02011 2.80386C2.72187 1.7489 3.70014 1 5 1C7.12243 1 8.52276 2.47081 9.15822 3.13826C9.20375 3.18608 9.24535 3.22977 9.283 3.26851Z" stroke="#111111" stroke-width="2"/>
</svg>
