<svg width="32" height="32" viewBox="0 0 32 32" fill="none" xmlns="http://www.w3.org/2000/svg">
<path d="M7.14218 25L8.87552 12H23.1245L24.8578 25H7.14218Z" stroke="black" stroke-width="2"/>
<path d="M12.5258 12C12.5846 10.916 12.7563 9.78664 13.1637 8.87095C13.4248 8.28405 13.7645 7.82718 14.1952 7.51585C14.6163 7.21145 15.1873 7 16 7C16.8127 7 17.3837 7.21145 17.8048 7.51585C18.2355 7.82718 18.5752 8.28405 18.8363 8.87095C19.2437 9.78664 19.4154 10.916 19.4742 12H12.5258Z" stroke="black" stroke-width="2"/>
<circle cx="24" cy="8" r="8" fill="#111111"/>
<path d="M21.6514 11H26.4072V10.082H23.1455V10.0234L24.5811 8.56836C25.9092 7.26465 26.2803 6.63477 26.29 5.84375C26.2803 4.69629 25.3379 3.83203 23.9756 3.83203C22.6279 3.83203 21.6416 4.68652 21.6514 5.98047H22.667C22.6719 5.22852 23.1699 4.73047 23.9561 4.73047C24.6982 4.73047 25.2646 5.1748 25.2646 5.87305C25.2646 6.49316 24.8789 6.94238 24.1025 7.74805L21.6514 10.2188V11Z" fill="white"/>
</svg>
