<svg width="24" height="24" viewBox="0 0 24 24" fill="none" xmlns="http://www.w3.org/2000/svg">
<path d="M11.2932 7.62168L12 8.32792L12.7068 7.62168C12.8297 7.49887 12.9644 7.34073 13.1157 7.16305C13.8441 6.30786 14.958 5 17 5C19.9816 5 21 6.97249 21 7.88571L21 8.85713C21 10.8689 19.7505 12.8068 17.7923 14.7685C16.4787 16.0844 14.9772 17.2917 13.5028 18.4771C12.9958 18.8849 12.4919 19.29 12 19.6961C11.5081 19.29 11.0042 18.8849 10.4972 18.4771C9.0228 17.2917 7.52132 16.0844 6.20774 14.7685C4.24954 12.8068 3.00001 10.8689 3.00002 8.85715V8.85713L3 7.88571C3 7.88571 3 7.8857 3 7.8857C3.00001 6.97246 4.01845 5 7 5C9.04198 5 10.1559 6.30786 10.8843 7.16305C11.0356 7.34073 11.1703 7.49887 11.2932 7.62168Z" stroke="#111111" stroke-width="2"/>
</svg>
