<svg width="44" height="44" viewBox="0 0 44 44" fill="none" xmlns="http://www.w3.org/2000/svg">
<g clip-path="url(#clip0_199_737)">
<path d="M31.5828 17.1867C31.3522 16.3271 30.6751 15.6479 29.8155 15.4194C28.2558 15.0022 22.0021 15.0022 22.0021 15.0022C22.0021 15.0022 15.7484 15.0022 14.1887 15.4194C13.3249 15.6479 12.6478 16.325 12.4172 17.1867C12 18.7464 12 22.0001 12 22.0001C12 22.0001 12 25.2538 12.4172 26.8135C12.6478 27.6731 13.3249 28.3523 14.1845 28.5808C15.7442 28.998 21.9979 28.998 21.9979 28.998C21.9979 28.998 28.2516 28.998 29.8113 28.5808C30.6709 28.3502 31.3501 27.6731 31.5786 26.8135C31.9958 25.2538 31.9958 22.0001 31.9958 22.0001C31.9958 22.0001 31.9958 18.7464 31.5786 17.1867H31.5828Z" fill="#111111"/>
<path d="M20 25L25.195 22L20 19V25Z" fill="white"/>
</g>
<defs>
<clipPath id="clip0_199_737">
<rect width="20" height="14" fill="white" transform="translate(12 15)"/>
</clipPath>
</defs>
</svg>
