<svg width="44" height="44" viewBox="0 0 44 44" fill="none" xmlns="http://www.w3.org/2000/svg">
<g clip-path="url(#clip0_908_6624)">
<path d="M26.2264 12H17.7721C14.5844 12 12 14.5844 12 17.7721V26.2264C12 29.4141 14.5844 31.9986 17.7721 31.9986H26.2264C29.4141 31.9986 31.9986 29.4141 31.9986 26.2264V17.7721C32 14.5844 29.4156 12 26.2264 12ZM30.1576 26.3751C30.1576 28.4908 28.4427 30.2072 26.3256 30.2072H17.673C15.5573 30.2072 13.841 28.4922 13.841 26.3751V17.724C13.841 15.6083 15.5559 13.8919 17.673 13.8919H26.3256C28.4413 13.8919 30.1576 15.6069 30.1576 17.724V26.3765V26.3751Z" fill="white"/>
<path d="M21.9992 16.8601C19.133 16.8601 16.8105 19.184 16.8105 22.0488C16.8105 24.9136 19.1344 27.2375 21.9992 27.2375C24.8641 27.2375 27.1879 24.9136 27.1879 22.0488C27.1879 19.184 24.8641 16.8601 21.9992 16.8601ZM21.9992 25.4135C20.1413 25.4135 18.6359 23.9068 18.6359 22.0502C18.6359 20.1937 20.1427 18.6869 21.9992 18.6869C23.8558 18.6869 25.3626 20.1937 25.3626 22.0502C25.3626 23.9068 23.8558 25.4135 21.9992 25.4135Z" fill="white"/>
<path d="M27.3617 17.8726C28.0296 17.8726 28.5711 17.3312 28.5711 16.6632C28.5711 15.9953 28.0296 15.4539 27.3617 15.4539C26.6938 15.4539 26.1523 15.9953 26.1523 16.6632C26.1523 17.3312 26.6938 17.8726 27.3617 17.8726Z" fill="white"/>
</g>
<defs>
<clipPath id="clip0_908_6624">
<rect width="20" height="20" fill="white" transform="translate(12 12)"/>
</clipPath>
</defs>
</svg>
