<svg width="24" height="24" viewBox="0 0 24 24" fill="none" xmlns="http://www.w3.org/2000/svg">
<circle cx="12" cy="12" r="11.5" fill="white" stroke="#111111"/>
<path d="M12 8C13.84 8 15.3333 8.82667 15.3333 10.6667V15H8.66667V10.6667C8.66667 8.82667 10.16 8 12 8ZM12 5C11.4467 5 11 5.44667 11 6V6.78C8.90667 7.23333 7.33333 8.43333 7.33333 10.6667V14.3333L6 15.3333V16.3333H18V15.3333L16.6667 14.3333V10.6667C16.6667 8.43333 15.0933 7.23333 13 6.78V6C13 5.44667 12.5533 5 12 5Z" fill="#111111"/>
<path d="M10.6729 17C10.6729 17.7333 11.2662 18.3267 11.9995 18.3267C12.7329 18.3267 13.3262 17.7333 13.3262 17H10.6729Z" fill="#111111"/>
</svg>
