<svg width="24" height="24" viewBox="0 0 24 24" fill="none" xmlns="http://www.w3.org/2000/svg">
<g clip-path="url(#clip0_1033_7166)">
<path d="M12 6.5C14.76 6.5 17 7.74 17 10.5V17H7V10.5C7 7.74 9.24 6.5 12 6.5ZM12 2C11.17 2 10.5 2.67 10.5 3.5V4.67C7.36 5.35 5 7.15 5 10.5V16L3 17.5V19H21V17.5L19 16V10.5C19 7.15 16.64 5.35 13.5 4.67V3.5C13.5 2.67 12.83 2 12 2Z" fill="#111111"/>
<path d="M10.01 20C10.01 21.1 10.9 21.99 12 21.99C13.1 21.99 13.99 21.1 13.99 20H10.01Z" fill="#111111"/>
</g>
<defs>
<clipPath id="clip0_1033_7166">
<rect width="24" height="24" fill="white"/>
</clipPath>
</defs>
</svg>
