<svg width="16" height="16" viewBox="0 0 16 16" fill="none" xmlns="http://www.w3.org/2000/svg">
<path fill-rule="evenodd" clip-rule="evenodd" d="M12.5508 14.6211L12.5508 14.6211L12.547 14.6302C12.4553 14.8534 12.2434 15 12 15H5C4.93299 15 4.67248 14.9218 4.37569 14.6262C4.07998 14.3316 4.00028 14.0722 4 14.0004V7.4C4 7.3996 4 7.39919 4 7.39879V6.5C4 6.50007 4 6.50004 4.00001 6.49991L4.00001 6.49989C4.00012 6.49772 4.00145 6.47182 4.01588 6.4205C4.03078 6.36754 4.05529 6.30305 4.09003 6.23212C4.16346 6.08222 4.25403 5.96097 4.31206 5.90212L4.3327 5.88119L4.35207 5.85908L8.4196 1.21766L9.15046 1.95886C9.15022 1.99025 9.14888 2.02559 9.14665 2.06591L9.1434 2.1202L9.14078 2.16298C9.13972 2.18074 9.1381 2.2082 9.13705 2.23931L9.12383 2.38227L8.38474 5.19899L8.05576 6.45279H9.352H14.4C14.7145 6.45279 15 6.72197 15 7.07544V8.69809C15 8.77316 14.9874 8.84283 14.9595 8.91857L12.5508 14.6211ZM3.00491 6.40001C3.04568 5.97276 3.33314 5.47063 3.6 5.2L8 0.179189C8.13333 0.0439688 8.48 -0.14534 8.8 0.17919L10 1.39617C10.1792 1.57787 10.1547 1.97053 10.1411 2.18809C10.1383 2.23283 10.136 2.27017 10.136 2.29674L10.112 2.55637L9.61439 4.45279L9.352 5.45279H10.3859H14.4C15.28 5.45279 16 6.18298 16 7.07544V8.69809C16 8.90903 15.96 9.10375 15.888 9.29035L13.472 15.0102C13.232 15.5943 12.664 16 12 16H5C4.62906 16 4.21549 15.8032 3.86112 15.5087C3.68701 15.8028 3.36654 16 3 16H1C0.447715 16 0 15.5523 0 15V7.4C0 6.84771 0.447715 6.4 1 6.4H3C3.00164 6.4 3.00327 6.4 3.00491 6.40001ZM3 7.4H1V15H3V14.0012C3 14.0008 3 14.0004 3 14L3 7.4Z" fill="white"/>
</svg>
