<svg width="25" height="24" viewBox="0 0 25 24" fill="none" xmlns="http://www.w3.org/2000/svg">
<path d="M12.033 6.26851L12.75 7.00599L13.467 6.26851C13.5093 6.22497 13.5563 6.17529 13.6081 6.12062C14.2493 5.44316 15.6152 4 17.75 4C19.0499 4 20.0281 4.7489 20.7299 5.80386C21.4491 6.88503 21.75 8.1096 21.75 8.65714C21.75 11.0874 20.4759 13.0287 18.5559 14.8802C17.5965 15.8053 16.508 16.6773 15.3822 17.5619C15.2592 17.6585 15.1356 17.7554 15.0118 17.8525C14.2531 18.4474 13.482 19.0519 12.7524 19.671C12.1122 19.1202 11.4385 18.5696 10.7683 18.0218C10.5563 17.8486 10.3448 17.6757 10.1347 17.5032C9.01204 16.581 7.9192 15.6587 6.95584 14.6988C5.00851 12.7584 3.75 10.8184 3.75 8.65714C3.75 8.1096 4.05091 6.88503 4.77011 5.80386C5.47187 4.7489 6.45014 4 7.75 4C9.87243 4 11.2728 5.47081 11.9082 6.13826C11.9537 6.18608 11.9953 6.22977 12.033 6.26851Z" stroke="black" stroke-width="2"/>
</svg>
