<svg width="24" height="24" viewBox="0 0 24 24" fill="none" xmlns="http://www.w3.org/2000/svg">
<path d="M3.15299 10.6252C4.43932 5.82453 9.37504 2.97489 14.1757 4.26122L14.6933 2.32937L17.7709 6.25984L13.1404 8.12493L13.6581 6.19307C9.91992 5.19144 6.08647 7.40469 5.08484 11.1428C4.08321 14.881 6.29646 18.7144 10.0346 19.716C13.7727 20.7177 17.6062 18.5044 18.6078 14.7663C19.1073 12.9021 18.7972 11.0072 17.8966 9.46145L19.6357 8.45736C20.7883 10.4537 21.1841 12.8788 20.5397 15.2839C19.2533 20.0846 14.3176 22.9342 9.51695 21.6479C4.7163 20.3616 1.86666 15.4258 3.15299 10.6252Z" fill="#111111"/>
</svg>
