<svg width="24" height="24" viewBox="0 0 24 24" fill="none" xmlns="http://www.w3.org/2000/svg">
<path d="M11.6466 7.26798L12 7.6211L12.3534 7.26798C12.4494 7.17204 12.5629 7.03723 12.6968 6.87825C13.4094 6.03179 14.6991 4.5 17 4.5C20.2408 4.5 21.5 6.67971 21.5 7.88571L21.5 8.85714C21.5 11.0773 20.1252 13.1391 18.1461 15.1218C16.814 16.4563 15.274 17.6948 13.7871 18.8907C13.1764 19.3818 12.5747 19.8657 12 20.3461C11.4253 19.8657 10.8236 19.3818 10.2129 18.8907C8.72602 17.6948 7.18604 16.4563 5.85387 15.1218C3.87477 13.1391 2.50001 11.0773 2.50002 8.85714V8.85714L2.5 7.88571C2.5 7.88571 2.5 7.88571 2.5 7.88571C2.50001 6.6797 3.75922 4.5 7 4.5C9.30095 4.5 10.5906 6.03179 11.3032 6.87825C11.4371 7.03723 11.5506 7.17204 11.6466 7.26798Z" stroke="#999999"/>
</svg>
