
                        <svg width="25" height="24" viewBox="0 0 25 24" fill="none" xmlns="http://www.w3.org/2000/svg">
                            <path d="M12.25 4C13.35 4 14.25 4.9 14.25 6C14.25 7.1 13.35 8 12.25 8C11.15 8 10.25 7.1 10.25 6C10.25 4.9 11.15 4 12.25 4ZM12.25 14C15.25 14 20.05 16.29 20.25 17V20H4.25V17.01C4.45 16.29 9.25 14 12.25 14ZM12.25 2C10.04 2 8.25 3.79 8.25 6C8.25 8.21 10.04 10 12.25 10C14.46 10 16.25 8.21 16.25 6C16.25 3.79 14.46 2 12.25 2ZM12.25 12C9.25 12 2.25 14.34 2.25 17V22H22.25V17C22.25 14.34 15.25 12 12.25 12Z" fill="black"/>
                            </svg>