<svg width="24" height="24" viewBox="0 0 24 24" fill="none" xmlns="http://www.w3.org/2000/svg">
    <path d="M3.14218 21L4.87552 8H19.1245L20.8578 21H3.14218Z" stroke="black" stroke-width="2"/>
    <mask id="path-2-inside-1_60_108" fill="white">
    <path d="M16.5 9H7.5C7.5 6.23858 8 2 12 2C16 2 16.5 6.23858 16.5 9Z"/>
    </mask>
    <path d="M16.5 9V11H18.5V9H16.5ZM7.5 9H5.5V11H7.5V9ZM9.5 9C9.5 7.67372 9.63162 6.27922 10.0773 5.27743C10.287 4.80605 10.5291 4.50842 10.7811 4.32627C11.0139 4.15799 11.3745 4 12 4V0C10.6255 0 9.42364 0.371834 8.43768 1.08458C7.4709 1.78346 6.83797 2.71806 6.42268 3.6515C5.61838 5.45935 5.5 7.56486 5.5 9H9.5ZM12 4C12.6255 4 12.9861 4.15799 13.2189 4.32627C13.4709 4.50842 13.713 4.80605 13.9227 5.27743C14.3684 6.27922 14.5 7.67372 14.5 9H18.5C18.5 7.56486 18.3816 5.45935 17.5773 3.6515C17.162 2.71806 16.5291 1.78346 15.5623 1.08458C14.5764 0.371834 13.3745 0 12 0V4ZM16.5 7H7.5V11H16.5V7Z" fill="black" mask="url(#path-2-inside-1_60_108)"/>
</svg>