<svg width="24" height="24" viewBox="0 0 24 24" fill="none" xmlns="http://www.w3.org/2000/svg">
<g clip-path="url(#clip0_154_725)">
<path d="M17.5802 12.6327C17.5648 10.1018 19.6482 8.88269 19.7407 8.82096C18.5525 7.09257 16.7161 6.86109 16.0679 6.84566C14.5247 6.69133 13.0278 7.77158 12.2407 7.77158C11.4537 7.77158 10.2346 6.86109 8.92284 6.89195C7.24074 6.92282 5.6821 7.89504 4.8179 9.39195C3.04321 12.4629 4.37037 16.9845 6.0679 19.4691C6.91667 20.6882 7.91975 22.0463 9.21605 22C10.4969 21.9537 10.9599 21.1821 12.5031 21.1821C14.0463 21.1821 14.4784 22 15.8056 21.9691C17.179 21.9537 18.0278 20.75 18.8611 19.5154C19.8488 18.1265 20.2346 16.7531 20.25 16.6759C20.2191 16.6759 17.5957 15.6574 17.5648 12.6327H17.5802Z" fill="#111111"/>
<path d="M15.0802 5.20988C15.7593 4.36111 16.2377 3.18827 16.0988 2C15.1111 2.0463 13.8611 2.67901 13.1512 3.52778C12.5185 4.26852 11.9475 5.47222 12.1019 6.6142C13.213 6.69136 14.3549 6.05864 15.0802 5.20988Z" fill="#111111"/>
</g>
<defs>
<clipPath id="clip0_154_725">
<rect width="16.2654" height="20" fill="white" transform="translate(4 2)"/>
</clipPath>
</defs>
</svg>
