<svg width="24" height="24" viewBox="0 0 24 24" fill="none" xmlns="http://www.w3.org/2000/svg">
<g clip-path="url(#clip0_154_715)">
<path d="M3.35249 3.30648C3.12261 3.55169 3 3.9195 3 4.3946V21.6053C3 22.0804 3.13793 22.4636 3.35249 22.6934L3.41379 22.7548L13.0536 13.1149V12.885L3.41379 3.2605L3.35249 3.3218" fill="#5BC9F4"/>
<path d="M20.1341 14.1263C21.2222 13.5133 21.2222 12.5018 20.1341 11.8888L16.2567 9.68188L13.0383 12.9003V13.1302L16.2414 16.3486L16.318 16.3026L20.1188 14.1417L20.1341 14.1263Z" fill="url(#paint0_linear_154_715)"/>
<path d="M13.0536 13.0076L3.35249 22.6934C3.70498 23.0765 4.30268 23.1225 4.96169 22.7394L16.318 16.2873L13.0383 13.0076H13.0536Z" fill="url(#paint1_linear_154_715)"/>
<path d="M16.3333 9.71262L4.97701 3.26052C4.30268 2.87738 3.72031 2.92335 3.35249 3.30649L13.0536 13.0076L16.3333 9.72795V9.71262Z" fill="url(#paint2_linear_154_715)"/>
</g>
<defs>
<linearGradient id="paint0_linear_154_715" x1="19.8113" y1="13.0689" x2="0.912032" y2="13.0689" gradientUnits="userSpaceOnUse">
<stop stop-color="#FEE000"/>
<stop offset="0.4" stop-color="#FBBD0D"/>
<stop offset="0.77" stop-color="#F9A418"/>
<stop offset="1" stop-color="#F99B1C"/>
</linearGradient>
<linearGradient id="paint1_linear_154_715" x1="14.8448" y1="14.7322" x2="-2.92946" y2="32.5064" gradientUnits="userSpaceOnUse">
<stop stop-color="#EF4547"/>
<stop offset="1" stop-color="#C6196D"/>
</linearGradient>
<linearGradient id="paint2_linear_154_715" x1="-5.64368" y1="7.99615" x2="10.5862" y2="7.99615" gradientUnits="userSpaceOnUse">
<stop stop-color="#279E6F"/>
<stop offset="0.04" stop-color="#2B9F6E"/>
<stop offset="0.46" stop-color="#52B16B"/>
<stop offset="0.8" stop-color="#6BBC69"/>
<stop offset="1" stop-color="#74C169"/>
</linearGradient>
<clipPath id="clip0_154_715">
<rect width="17.9617" height="20" fill="white" transform="translate(3 3)"/>
</clipPath>
</defs>
</svg>
