<svg width="24" height="24" viewBox="0 0 24 24" fill="none" xmlns="http://www.w3.org/2000/svg">
<g clip-path="url(#clip0_154_746)">
<path d="M16.2264 2H7.77214C4.58444 2 2 4.58444 2 7.77214V16.2264C2 19.4141 4.58444 21.9986 7.77214 21.9986H16.2264C19.4141 21.9986 21.9986 19.4141 21.9986 16.2264V7.77214C22 4.58444 19.4156 2 16.2264 2ZM20.1576 16.3751C20.1576 18.4908 18.4427 20.2072 16.3256 20.2072H7.67302C5.55732 20.2072 3.84097 18.4922 3.84097 16.3751V7.724C3.84097 5.6083 5.5559 3.89195 7.67302 3.89195H16.3256C18.4413 3.89195 20.1576 5.60688 20.1576 7.724V16.3765V16.3751Z" fill="#111111"/>
<path d="M11.9993 6.86011C9.13305 6.86011 6.81059 9.18398 6.81059 12.0488C6.81059 14.9136 9.13446 17.2375 11.9993 17.2375C14.8641 17.2375 17.188 14.9136 17.188 12.0488C17.188 9.18398 14.8641 6.86011 11.9993 6.86011ZM11.9993 15.4135C10.1413 15.4135 8.63598 13.9068 8.63598 12.0502C8.63598 10.1937 10.1427 8.68691 11.9993 8.68691C13.8558 8.68691 15.3626 10.1937 15.3626 12.0502C15.3626 13.9068 13.8558 15.4135 11.9993 15.4135Z" fill="#111111"/>
<path d="M17.3622 7.87261C18.0301 7.87261 18.5716 7.33115 18.5716 6.66323C18.5716 5.99531 18.0301 5.45386 17.3622 5.45386C16.6943 5.45386 16.1528 5.99531 16.1528 6.66323C16.1528 7.33115 16.6943 7.87261 17.3622 7.87261Z" fill="#111111"/>
</g>
<defs>
<clipPath id="clip0_154_746">
<rect width="20" height="20" fill="white" transform="translate(2 2)"/>
</clipPath>
</defs>
</svg>
