<svg width="158" height="15" viewBox="0 0 158 15" fill="none" xmlns="http://www.w3.org/2000/svg">
    <path d="M20.4831 6.15632L16.3367 0.409424H13.4409L19.2548 8.52729V14.665H21.6369V8.52729L27.5476 0.409424H24.5737L20.4831 6.15632Z" fill="#111111"/>
    <path d="M11.2816 7.11662C12.1079 6.29404 12.4355 5.5124 12.4355 4.39205C12.4355 1.9727 10.7568 0.409424 8.15509 0.409424H0V14.665H8.15136C9.68486 14.665 10.6824 14.6092 11.8511 13.5186C12.67 12.7779 13.1017 11.7953 13.1017 10.6824C13.1017 9.32382 12.4876 8.1253 11.2779 7.11662H11.2816ZM2.38213 2.79156H8.15136C9.41687 2.79156 10.031 3.32009 10.031 4.41066C10.031 5.91811 8.85484 6.14143 8.15136 6.14143H2.38213V2.79156ZM10.1985 11.6873C9.68114 12.2047 9.05955 12.2457 8.35608 12.2457H2.38213V8.5794H8.15136C9.85608 8.5794 10.7196 9.20099 10.7196 10.4218C10.7196 10.902 10.5335 11.3486 10.1985 11.6873V11.6873Z" fill="#111111"/>
    <path d="M31.647 0.409424H29.2463V14.665H40.0962V12.2643H31.647V0.409424Z" fill="#111111"/>
    <path d="M46.048 6.15632L41.9016 0.409424H39.0058L44.8197 8.52729V14.665H47.2018V8.52729L53.1125 0.409424H50.1386L46.048 6.15632Z" fill="#111111"/>
    <path d="M65.7157 10.6675L57.6351 0.409424H55.3869V14.665H57.7505V4.44416L65.8497 14.665H68.1351V0.409424H65.7157V10.6675Z" fill="#111111"/>
    <path d="M82.1487 10.6675L74.0681 0.409424H71.8199V14.665H74.1835V4.44416L82.2827 14.665H84.5681V0.409424H82.1487V10.6675Z" fill="#111111"/>
    <circle cx="89.5312" cy="13.125" r="1.40625" fill="#111111"/>
    <path d="M133.129 0C128.9 0 125.461 3.29032 125.461 7.33251C125.461 11.6315 128.822 15 133.11 15C137.398 15 140.777 11.6613 140.777 7.55583C140.777 3.45037 137.416 0 133.129 0ZM133.129 12.5806C130.203 12.5806 127.825 10.3362 127.825 7.57444C127.825 4.58561 130.047 2.41935 133.11 2.41935C136.173 2.41935 138.395 4.62655 138.395 7.44417C138.395 10.2618 136.08 12.5806 133.129 12.5806Z" fill="#111111"/>
    <path d="M152.505 0.409424H144.261V14.665H146.662V8.7655H152.505C155.085 8.7655 156.749 7.1129 156.749 4.55955C156.749 2.0062 155.122 0.409424 152.505 0.409424V0.409424ZM152.505 6.34615H146.662V2.81017H152.505C153.808 2.81017 154.366 3.33498 154.366 4.55955C154.366 5.78411 153.756 6.34615 152.505 6.34615Z" fill="#111111"/>
    <path d="M119.896 6.02977H112.099V0.409424H109.717V14.665H112.099V8.44913H119.896V14.665H122.297V0.409424H119.896V6.02977Z" fill="#111111"/>
    <path d="M104.866 6.80032C103.415 5.9368 102.038 5.9368 100.582 5.9368H98.5166C97.0427 5.9368 96.3578 5.48643 96.3578 4.52241C96.3578 2.9033 98.9037 2.47526 100.247 2.47526C101.933 2.47526 102.927 2.91446 104.524 3.90082L104.673 3.99387L106.013 2.08444L105.868 1.9765C104.193 0.710991 102.157 0.0410156 99.9868 0.0410156C99.1345 0.0410156 98.3082 0.163844 97.5265 0.402058C95.792 0.967815 93.9347 2.35243 93.9347 4.54474C93.9347 7.25069 96.2573 8.25193 98.2486 8.28543L100.333 8.32265C102.343 8.35987 103.009 8.39337 103.698 8.83258C104.26 9.19362 104.543 9.67377 104.543 10.2581C104.543 12.0782 101.956 12.5658 100.43 12.5658C97.9173 12.5658 96.4285 12.015 94.7498 10.4554L94.6196 10.3363L92.9409 11.948L93.0712 12.082C95.07 14.1179 97.1841 14.9852 100.147 14.9852C103.262 14.9852 106.902 13.7904 106.902 10.4256C106.902 8.89958 106.158 7.57824 104.859 6.80404L104.866 6.80032Z" fill="#111111"/>
</svg>