<svg width="93" height="16" viewBox="0 0 93 16" fill="none" xmlns="http://www.w3.org/2000/svg">
<path d="M8.5 12.8589L13.753 16L12.359 10.08L17 6.09684L10.8885 5.58316L8.5 0L6.1115 5.58316L0 6.09684L4.641 10.08L3.247 16L8.5 12.8589Z" fill="#FFFFFF"/>
<path d="M27.5 12.8589L32.753 16L31.359 10.08L36 6.09684L29.8885 5.58316L27.5 0L25.1115 5.58316L19 6.09684L23.641 10.08L22.247 16L27.5 12.8589Z" fill="#FFFFFF"/>
<path d="M46.5 12.8589L51.753 16L50.359 10.08L55 6.09684L48.8885 5.58316L46.5 0L44.1115 5.58316L38 6.09684L42.641 10.08L41.247 16L46.5 12.8589Z" fill="#FFFFFF"/>
<path d="M65.5 12.8589L70.753 16L69.359 10.08L74 6.09684L67.8885 5.58316L65.5 0L63.1115 5.58316L57 6.09684L61.641 10.08L60.247 16L65.5 12.8589Z" fill="#FFFFFF"/>
<path d="M84.5 12.8589L89.753 16L88.359 10.08L93 6.09684L86.8885 5.58316L84.5 0L82.1115 5.58316L76 6.09684L80.641 10.08L79.247 16L84.5 12.8589Z" fill="#FFFFFF"/>
</svg>
