<svg width="24" height="24" viewBox="0 0 24 24" fill="none" xmlns="http://www.w3.org/2000/svg">
<path d="M11.283 6.26851L12 7.00599L12.717 6.26851C12.7593 6.22497 12.8063 6.17529 12.8581 6.12062C13.4993 5.44316 14.8652 4 17 4C18.2999 4 19.2781 4.7489 19.9799 5.80386C20.6991 6.88503 21 8.1096 21 8.65714C21 11.0874 19.7259 13.0287 17.8059 14.8802C16.8465 15.8053 15.758 16.6773 14.6322 17.5619C14.5092 17.6585 14.3856 17.7554 14.2618 17.8525C13.5031 18.4474 12.732 19.0519 12.0024 19.671C11.3622 19.1202 10.6885 18.5696 10.0183 18.0218C9.80634 17.8486 9.59478 17.6757 9.38474 17.5032C8.26204 16.581 7.1692 15.6587 6.20584 14.6988C4.25851 12.7584 3 10.8184 3 8.65714C3 8.1096 3.30091 6.88503 4.02011 5.80386C4.72187 4.7489 5.70014 4 7 4C9.12243 4 10.5228 5.47081 11.1582 6.13826C11.2037 6.18608 11.2453 6.22977 11.283 6.26851Z" stroke="#111111" stroke-width="2"/>
</svg>
